# xmcd CD database file
#
# Track frame offsets:
#	150
#	18963
#	37800
#	52004
#	74374
#	95005
#	107907
#	135859
#	162056
#	177563
#	199172
#	216865
#	238666
#	254431
#	276500
#	293383
#	309962
#
# Disc length: 4384 seconds
#
# Revision: 2
# Processed by: cddbd v1.4b41PL1 Copyright (c) Steve Scherf et al.
# Submitted via: Feurio! 1.52.5ß - http://www.feurio.com
#
DISCID=f2111e11
DTITLE=Rockfabrik - Wet X-Mas Dreams
DYEAR=1900
DGENRE=
TTITLE0=Pretty Maids - Hell On High Heels
TTITLE1=Pyogenesis - Massacre
TTITLE2=Pro-Pain - In For The Kill
TTITLE3=Narnia - Long Live The King
TTITLE4=Sculpture - Bring Me Down
TTITLE5=New Eden - I Am
TTITLE6=Dreams Of Sanity - Within (The Dragon)
TTITLE7=Crown Of Thorn - Lost Cathedral
TTITLE8=Anvil - Bullshit
TTITLE9=Disbelief - First
TTITLE10=Sacred Steel - Wargods Of Metal
TTITLE11=Love Like Blood - Phrases
TTITLE12=Casket - Let Your Hair Down
TTITLE13=Devin Townsend - Bad Devil
TTITLE14=Sentenced - Farewell
TTITLE15=Stevie Sales - Cover Me In Noice
TTITLE16=U.D.O. - The Want War
EXTD=
EXTT0=
EXTT1=
EXTT2=
EXTT3=
EXTT4=
EXTT5=
EXTT6=
EXTT7=
EXTT8=
EXTT9=
EXTT10=
EXTT11=
EXTT12=
EXTT13=
EXTT14=
EXTT15=
EXTT16=
PLAYORDER=
